# xmcd
#
# Track frame offsets: 
#        150
#        10696
#        27651
#        41054
#        53425
#        64484
#        79555
#        91602
#        113503
#        127933
#        144892
#        159604
#        185727
#        200251
#        217596
#        233813
#        248420
#        256299
#        277585
#
# Disc length: 3845 seconds
#
# Revision: 0
# Processed by: cddbd v1.5.2PL0 Copyright (c) Steve Scherf et al.
# Submitted via: ExactAudioCopy v1.0b1
#
DISCID=e60f0313
DTITLE=Rory Block - Cleveland Sept 13,  2000
DYEAR=2000
DGENRE=Blues
TTITLE0=Hey Yeah
TTITLE1=Preaching Blues
TTITLE2=If I Had Posession Over Judgement Day
TTITLE3=Terraplane Blues
TTITLE4=Titanic (When The Good Ship Went Down)
TTITLE5=Hawkin's Blues
TTITLE6=Maggie Campbell
TTITLE7=Like a Shotgun
TTITLE8=Ain't No Grave Can Hold My Body Down
TTITLE9=Lovin' Whiskey
TTITLE10=The Water is Wide
TTITLE11=Got to Shine
TTITLE12=Canned Heat
TTITLE13=Rolling Log
TTITLE14=Big Road Blues
TTITLE15=Joliet Bound
TTITLE16=Instrumental
TTITLE17=Come On in My Kitchen
TTITLE18=The Uncloudy Day
EXTD=
EXTT0=
EXTT1=
EXTT2=
EXTT3=
EXTT4=
EXTT5=
EXTT6=
EXTT7=
EXTT8=
EXTT9=
EXTT10=
EXTT11=
EXTT12=
EXTT13=
EXTT14=
EXTT15=
EXTT16=
EXTT17=
EXTT18=
PLAYORDER=
